<?xml version="1.0" encoding="UTF-8" standalone="no"?>
<!DOCTYPE svg PUBLIC "-//W3C//DTD SVG 1.1//EN" "http://www.w3.org/Graphics/SVG/1.1/DTD/svg11.dtd">
<svg width="100%" height="100%" viewBox="0 0 228 60" version="1.1" xmlns="http://www.w3.org/2000/svg" xmlns:xlink="http://www.w3.org/1999/xlink" xml:space="preserve" xmlns:serif="http://www.serif.com/" style="fill-rule:evenodd;clip-rule:evenodd;stroke-linejoin:round;stroke-miterlimit:2;">
    <g transform="matrix(1,0,0,1,-36.380451,-51.36418)">
        <g id="full-logo">
            <g id="Logo" transform="matrix(0.804598,0,0,0.804598,26.419161,23.714818)">
                <g transform="matrix(1,0,0,1,2,-3)">
                    <path d="M110.776,110.543L10.38,111.592L11.466,89.175L108.56,101.166L110.776,110.543Z"/>
                </g>
                <g transform="matrix(1,0,0,1,-1,-0)">
                    <path d="M46.333,76.885L45.632,54.715L109.312,75.978L110.426,90.443L46.333,76.885Z"/>
                </g>
                <g transform="matrix(0.996237,-0.086668,0.086668,0.996237,-2.611078,13.335556)">
                    <path d="M75.035,47.507L74.99,27.632L101.263,42.93L113.394,50.509L106.333,63.879L75.035,47.507Z"/>
                </g>
            </g>
            <g transform="matrix(1,0,0,1,-5,42)">
                <g transform="matrix(24,0,0,24,250.668984,43.262203)">
                </g>
                <text x="129.31px" y="43.262px" style="font-family:'Arial-BoldMT', 'Arial', sans-serif;font-weight:700;font-size:24px;">VINYLOVE</text>
            </g>
            <g transform="matrix(1,0,0,1,-13,22)">
                <g transform="matrix(24,0,0,24,276.431905,88.271896)">
                </g>
                <text x="137.295px" y="88.272px" style="font-family:'Arial-ItalicMT', 'Arial', sans-serif;font-style:italic;font-size:24px;">SCHODY<tspan x="237.772px 244.44px " y="88.272px 88.272px ">.C</tspan>Z</text>
            </g>
        </g>
    </g>
</svg>
